<?xml version="1.0" encoding="UTF-8" standalone="no"?>
<!-- Created with Inkscape (http://www.inkscape.org/) -->

<svg
   xmlns:dc="http://purl.org/dc/elements/1.1/"
   xmlns:cc="http://creativecommons.org/ns#"
   xmlns:rdf="http://www.w3.org/1999/02/22-rdf-syntax-ns#"
   xmlns:svg="http://www.w3.org/2000/svg"
   xmlns="http://www.w3.org/2000/svg"
   xmlns:sodipodi="http://sodipodi.sourceforge.net/DTD/sodipodi-0.dtd"
   xmlns:inkscape="http://www.inkscape.org/namespaces/inkscape"
   version="1.1"
   id="svg2"
   width="440"
   height="520"
   viewBox="0 0 440 520"
   sodipodi:docname="calculator.svg"
   inkscape:version="0.92.5 (2060ec1f9f, 2020-04-08)">
  <metadata
     id="metadata8">
    <rdf:RDF>
      <cc:Work
         rdf:about="">
        <dc:format>image/svg+xml</dc:format>
        <dc:type
           rdf:resource="http://purl.org/dc/dcmitype/StillImage" />
        <dc:title></dc:title>
      </cc:Work>
    </rdf:RDF>
  </metadata>
  <defs
     id="defs6" />
  <sodipodi:namedview
     pagecolor="#ffffff"
     bordercolor="#666666"
     borderopacity="1"
     objecttolerance="10"
     gridtolerance="10"
     guidetolerance="10"
     inkscape:pageopacity="0"
     inkscape:pageshadow="2"
     inkscape:window-width="1920"
     inkscape:window-height="1019"
     id="namedview4"
     showgrid="false"
     inkscape:snap-global="false"
     inkscape:zoom="1.2836708"
     inkscape:cx="76.200284"
     inkscape:cy="238.1902"
     inkscape:window-x="0"
     inkscape:window-y="0"
     inkscape:window-maximized="1"
     inkscape:current-layer="svg2" />
  <path
     style="opacity:1;fill:#321964;fill-opacity:1;stroke:#000000;stroke-width:2;stroke-linecap:butt;stroke-linejoin:miter;stroke-miterlimit:4;stroke-dasharray:none;stroke-opacity:1;paint-order:normal"
     d="M 74.234375 48.091797 C 59.857017 48.091797 48.283203 59.665611 48.283203 74.042969 L 48.283203 445.95703 C 48.283203 460.33439 59.857017 471.9082 74.234375 471.9082 L 365.91016 471.9082 C 380.28752 471.9082 391.86133 460.33439 391.86133 445.95703 L 391.86133 74.042969 C 391.86133 59.665611 380.28752 48.091797 365.91016 48.091797 L 74.234375 48.091797 z M 99.697266 89.1875 L 338.88867 89.1875 C 345.36229 89.1875 350.57422 94.399408 350.57422 100.87305 L 350.57422 181.14453 C 350.57422 187.61815 345.36229 192.83008 338.88867 192.83008 L 99.697266 192.83008 C 93.223643 192.83008 88.011719 187.61815 88.011719 181.14453 L 88.011719 100.87305 C 88.011719 94.399408 93.223643 89.1875 99.697266 89.1875 z M 95.941406 233.58203 L 146.60352 233.58203 C 150.70359 233.58203 154.00391 236.88236 154.00391 240.98242 L 154.00391 291.82227 C 154.00391 295.92233 150.70359 299.22461 146.60352 299.22461 L 95.941406 299.22461 C 91.84134 299.22461 88.541016 295.92233 88.541016 291.82227 L 88.541016 240.98242 C 88.541016 236.88236 91.84134 233.58203 95.941406 233.58203 z M 194.74023 233.58203 L 245.40234 233.58203 C 249.5024 233.58203 252.80469 236.88236 252.80469 240.98242 L 252.80469 291.82227 C 252.80469 295.92233 249.5024 299.22461 245.40234 299.22461 L 194.74023 299.22461 C 190.64016 299.22461 187.33984 295.92233 187.33984 291.82227 L 187.33984 240.98242 C 187.33984 236.88236 190.64016 233.58203 194.74023 233.58203 z M 292.70312 233.58203 L 343.36523 233.58203 C 347.4653 233.58203 350.76568 236.88236 350.76562 240.98242 L 350.76562 291.82227 C 350.76562 295.92233 347.4653 299.22461 343.36523 299.22461 L 292.70312 299.22461 C 288.60307 299.22461 285.30078 295.92233 285.30078 291.82227 L 285.30078 240.98242 C 285.30078 236.88236 288.60306 233.58203 292.70312 233.58203 z M 95.611328 344.61914 L 146.27344 344.61914 C 150.37351 344.61914 153.67383 347.91947 153.67383 352.01953 L 153.67383 402.85938 C 153.67383 406.95943 150.37351 410.26172 146.27344 410.26172 L 95.611328 410.26172 C 91.511262 410.26172 88.210936 406.95941 88.210938 402.85938 L 88.210938 352.01953 C 88.210938 347.91947 91.511262 344.61914 95.611328 344.61914 z M 194.74023 344.61914 L 245.40234 344.61914 C 249.5024 344.61914 252.80469 347.91947 252.80469 352.01953 L 252.80469 402.85938 C 252.80469 406.95943 249.5024 410.26172 245.40234 410.26172 L 194.74023 410.26172 C 190.64016 410.26172 187.33984 406.95942 187.33984 402.85938 L 187.33984 352.01953 C 187.33984 347.91947 190.64016 344.61914 194.74023 344.61914 z M 292.89648 344.61914 L 343.55859 344.61914 C 347.65865 344.61914 350.95898 347.91947 350.95898 352.01953 L 350.95898 402.85938 C 350.95898 406.95943 347.65865 410.26172 343.55859 410.26172 L 292.89648 410.26172 C 288.79641 410.26172 285.49609 406.95943 285.49609 402.85938 L 285.49609 352.01953 C 285.49609 347.91947 288.79641 344.61914 292.89648 344.61914 z "
     id="rect819" />
</svg>
