<?xml version="1.0" encoding="UTF-8" standalone="no"?>
<!-- Created with Inkscape (http://www.inkscape.org/) -->

<svg
   xmlns:dc="http://purl.org/dc/elements/1.1/"
   xmlns:cc="http://creativecommons.org/ns#"
   xmlns:rdf="http://www.w3.org/1999/02/22-rdf-syntax-ns#"
   xmlns:svg="http://www.w3.org/2000/svg"
   xmlns="http://www.w3.org/2000/svg"
   xmlns:sodipodi="http://sodipodi.sourceforge.net/DTD/sodipodi-0.dtd"
   xmlns:inkscape="http://www.inkscape.org/namespaces/inkscape"
   inkscape:version="0.92.5 (2060ec1f9f, 2020-04-08)"
   sodipodi:docname="simucalc.svg"
   viewBox="0 0 480 480"
   height="480"
   width="480"
   id="svg2"
   version="1.1">
  <metadata
     id="metadata8">
    <rdf:RDF>
      <cc:Work
         rdf:about="">
        <dc:format>image/svg+xml</dc:format>
        <dc:type
           rdf:resource="http://purl.org/dc/dcmitype/StillImage" />
        <dc:title></dc:title>
      </cc:Work>
    </rdf:RDF>
  </metadata>
  <defs
     id="defs6" />
  <sodipodi:namedview
     pagecolor="#ffffff"
     bordercolor="#666666"
     borderopacity="1"
     objecttolerance="10"
     gridtolerance="10"
     guidetolerance="10"
     inkscape:pageopacity="0"
     inkscape:pageshadow="2"
     inkscape:window-width="1920"
     inkscape:window-height="1019"
     id="namedview4"
     showgrid="false"
     inkscape:zoom="0.17383042"
     inkscape:cx="-1154.7184"
     inkscape:cy="401.73632"
     inkscape:window-x="0"
     inkscape:window-y="0"
     inkscape:window-maximized="1"
     inkscape:current-layer="svg2" />
  <path
     style="fill:#00003c;stroke:#000000;stroke-width:1px;stroke-linecap:butt;stroke-linejoin:miter;stroke-opacity:1;fill-opacity:1"
     d="m 335.09671,59.818054 15.56577,0.08537 c 0,0 30.27631,-1.291126 55.26475,25.674811 24.98844,26.965935 23.37048,52.493685 23.37048,52.493685 v 206.01976 c 0,0 0.35955,31.46027 -26.96593,56.4487 -27.32548,24.98843 -59.68461,22.65138 -59.68461,22.65138 l -14.41362,0.11341 z"
     id="path853"
     inkscape:connector-curvature="0"
     sodipodi:nodetypes="cczcczccc" />
  <path
     style="fill:#321964;fill-opacity:1;stroke:#000000;stroke-width:1px;stroke-linecap:butt;stroke-linejoin:miter;stroke-opacity:1"
     d="m 57.886877,63.645939 c 0,0 225.797353,-27.118809 234.064333,-27.325483 21.57275,-0.539319 41.1102,7.465121 56.41557,28.83127 15.30536,21.366149 18.86995,39.265334 19.37843,50.451774 0.50847,11.18644 0.39038,249.48125 0.39038,249.48125 0,0 0.12338,34.53484 -22.31648,57.63739 -22.43986,23.10255 -41.45345,23.98555 -58.74159,22.9686 -17.28814,-1.01695 -174.37593,-23.5696 -174.37593,-23.5696 0,0 -21.941069,-1.63293 -39.275925,-26.56406 -9.996607,-14.3772 -15.998882,-33.01471 -15.639336,-50.46765 0.178037,-8.64223 0.100543,-281.443491 0.100543,-281.443491 z"
     id="path836"
     inkscape:connector-curvature="0"
     sodipodi:nodetypes="cszsczscsscc" />
  <path
     style="fill:#dcdc96;fill-opacity:1;stroke:#000000;stroke-width:0.9126451px;stroke-linecap:butt;stroke-linejoin:miter;stroke-opacity:1"
     d="m 283.32702,55.403679 c 18.18347,-1.056069 35.29455,1.21243 50.98353,23.157427 15.68898,21.944994 13.93787,37.270814 14.39937,47.536734 0.46149,10.26592 -0.12212,229.46012 -0.12212,229.46012 0,0 2.2391,32.83707 -18.12748,54.03853 -20.36657,21.20146 -36.35226,17.53554 -52.0431,16.60228 C 262.72638,425.2655 132.03157,410.97796 120.39756,409.28267 108.76355,407.58738 97.85423,404.98851 84.38899,388.63989 70.923751,372.29126 69.984279,352.5892 70.310609,336.57245 70.4722,328.64138 70.36044,75.812643 70.36044,75.812643 c 0,0 205.47363,-19.973785 212.96658,-20.408964 z"
     id="path836-3"
     inkscape:connector-curvature="0"
     sodipodi:nodetypes="szsczszzscs" />
  <path
     sodipodi:nodetypes="ccczssccscccsccscccccccsccsccccscscsccccssccccccssscccccscsccccccscsccccccccc"
     inkscape:connector-curvature="0"
     id="path825"
     d="m 296.44029,382.46956 c 5.85451,0.53717 10.33085,-5.70148 10.42281,-11.89908 -0.01,-43.58364 0.0633,-86.87084 0.0681,-130.45452 0.0139,-127.28585 0.3925,-129.60774 -1.18618,-133.40948 -1.57867,-3.80172 -5.97514,-8.344045 -10.63276,-8.507645 -2.25545,-0.07922 -32.37511,1.220566 -95.99921,5.541495 l -86.26592,5.85861 c -6.44534,1.06378 -9.86361,6.6637 -9.62175,12.31221 l -0.012,119.62157 c -0.0117,115.95371 -0.36302,115.95448 0.52888,119.04524 1.35846,3.97508 2.49056,6.80995 8.24874,8.38702 m 17.15085,-33.0534 c -3.94209,-1.42574 -4.59806,-4.38236 -4.59806,-20.69267 0,-15.25233 0.52567,-17.78163 4.07086,-19.56062 3.06386,-1.53747 26.9846,-1.00223 29.83688,0.68789 3.36171,1.99195 3.97263,5.64555 3.68529,22.06808 l -0.25036,14.31068 -2.12267,2.30597 -2.11892,2.30187 -13.08343,-0.26388 c -7.13517,-0.14388 -14.05716,-0.66458 -15.41959,-1.15732 v 0 m 55.75386,1.25624 c -1.44655,-0.81966 -2.76204,-2.45085 -3.25667,-4.03684 -0.45657,-1.46401 -0.82957,-9.02145 -0.82957,-16.80533 0,-15.48967 0.66988,-18.56575 4.37739,-20.07256 2.91444,-1.18449 28.22704,-0.67064 30.78989,0.64083 3.82349,1.95655 4.39244,4.60511 4.39244,20.47623 0,17.59243 -0.62972,20.00547 -5.54806,21.29905 -4.98887,1.31216 -26.92727,0.19749 -29.92542,-1.50138 v 0 m 60.24688,2.47517 c -0.90214,-0.40439 -2.37698,-1.64155 -3.27738,-2.74877 -1.47123,-1.80911 -1.66228,-3.49015 -1.90241,-16.72893 -0.1654,-9.11941 0.0794,-15.96675 0.6443,-18.00796 1.47936,-5.34682 3.46926,-5.92333 19.80681,-5.69923 15.63583,0.21449 18.59281,0.99093 20.12992,5.31698 0.44432,1.25053 0.80798,8.93097 0.80798,17.06722 0,17.17045 -0.71313,20.151 -5.17684,21.67175 -3.14447,1.07128 -28.30043,0.35357 -31.03238,-0.87105 v -10e-6 M 128.61748,265.62418 c -3.59645,-1.77963 -4.07361,-4.12233 -4.07361,-19.97203 0,-21.09183 -0.10045,-20.97757 18.85031,-21.27861 13.95682,-0.2217 16.63143,0.49917 18.00559,4.88304 1.11214,3.54809 1.15148,28.75084 0.0503,32.27913 -1.41476,4.53318 -4.19289,5.32686 -18.30674,5.26153 -8.45853,-0.0391 -12.97369,-0.40501 -14.52585,-1.17306 h 7e-5 m 56.33691,-0.10848 c -1.48933,-0.81439 -2.81802,-2.4165 -3.31527,-3.9962 -0.45657,-1.45049 -0.82958,-8.99689 -0.82958,-16.78076 0,-21.06993 -0.10001,-20.95795 19.14307,-21.26363 20.52448,-0.32604 20.41665,-0.43673 20.41665,21.13705 0,16.77747 -0.68394,19.78665 -4.84872,21.36603 -4.18308,1.58632 -27.49305,1.21791 -30.56615,-0.46249 v 0 m 59.2167,0.0812 c -1.56303,-0.83434 -2.95739,-2.47561 -3.47921,-4.09388 -1.15516,-3.58235 -1.12756,-29.64516 0.0352,-33.26744 1.5375,-4.78952 3.85431,-5.46944 19.60654,-5.71967 9.21285,-0.14634 14.97195,0.13687 16.40534,0.81068 4.03782,1.89816 4.6129,4.55157 4.6129,21.31426 0,17.24124 -0.60939,19.77234 -5.15701,21.45506 -4.3298,1.60214 -28.83342,1.20399 -32.0238,-0.49901 h -5e-5 m -115.0044,-66.74719 c -4.36062,-2.02821 -4.62299,-3.87557 -4.6217,-32.48765 8.6e-4,-28.9425 0.25103,-30.51288 5.20891,-32.69572 3.49446,-1.5385 140.33712,-9.24835 145.1135,-8.09357 2.14833,0.51939 3.73585,1.68295 4.83727,3.54743 1.53346,2.5959 1.6409,4.6294 1.6409,31.07579 0,26.44642 -0.10744,28.4886 -1.6409,31.2087 -1.10142,1.95368 -2.68894,3.24582 -4.83727,3.9392 -2.1333,0.68854 -27.54721,1.6588 -75.22935,2.8903 -57.4652,1.48423 -68.40801,1.57523 -70.47136,0.61552 v 0"
     style="fill:#321964;fill-opacity:1;stroke-width:0.80831575" />
</svg>
